<svg xmlns="http://www.w3.org/2000/svg" viewBox="0 0 200 60" fill="none">
  <g fill="#0A1F5E">
    <path d="M25 5C12.85 5 3 14.85 3 27v26c0 2.21 1.79 4 4 4h18c2.21 0 4-1.79 4-4V27c0-2.21-1.79-4-4-4H13c-2.21 0-4-1.79-4-4 0-6.63 5.37-12 12-12h4c2.21 0 4-1.79 4-4s-1.79-4-4-4Z" />
    <path d="M72 5H48c-2.21 0-4 1.79-4 4v46c0 2.21 1.79 4 4 4h24c2.21 0 4-1.79 4-4V9c0-2.21-1.79-4-4-4Zm-4 42H52V13h16v34Z" />
    <path d="M124 5h-24c-2.21 0-4 1.79-4 4v46c0 2.21 1.79 4 4 4h24c2.21 0 4-1.79 4-4V9c0-2.21-1.79-4-4-4Zm-4 42h-16V25c0-6.63 5.37-12 12-12h4v34Z" />
  </g>
  <text x="140" y="37" font-family="Arial, sans-serif" font-size="18" font-weight="700" fill="#0A1F5E">OCCU-MED</text>
</svg>
